<svg width="355" height="242" viewBox="0 0 355 242" fill="none" xmlns="http://www.w3.org/2000/svg">
<rect width="355" height="240" fill="white"/>
<circle cx="189.179" cy="121.14" r="120.206" transform="rotate(-90 189.179 121.14)" fill="#F5FAFF"/>
<ellipse cx="115.887" cy="202.747" rx="4.97325" ry="4.98467" transform="rotate(-100 115.887 202.747)" fill="#E6F3FF"/>
<ellipse cx="144.131" cy="202.748" rx="4.97325" ry="4.98467" transform="rotate(-100 144.131 202.748)" fill="#E6F3FF"/>
<ellipse cx="144.131" cy="182.852" rx="4.97325" ry="4.98467" transform="rotate(-100 144.131 182.852)" fill="#E6F3FF"/>
<ellipse cx="172.375" cy="202.747" rx="4.97325" ry="4.98467" transform="rotate(-100 172.375 202.747)" fill="#E6F3FF"/>
<ellipse cx="172.375" cy="182.852" rx="4.97325" ry="4.98467" transform="rotate(-100 172.375 182.852)" fill="#E6F3FF"/>
<ellipse cx="172.375" cy="162.955" rx="4.97325" ry="4.98467" transform="rotate(-100 172.375 162.955)" fill="#E6F3FF"/>
<ellipse cx="200.618" cy="202.747" rx="4.97325" ry="4.98467" transform="rotate(-100 200.618 202.747)" fill="#E6F3FF"/>
<ellipse cx="200.618" cy="182.852" rx="4.97325" ry="4.98467" transform="rotate(-100 200.618 182.852)" fill="#E6F3FF"/>
<ellipse cx="200.618" cy="162.956" rx="4.97325" ry="4.98467" transform="rotate(-100 200.618 162.956)" fill="#E6F3FF"/>
<ellipse cx="228.862" cy="202.747" rx="4.97325" ry="4.98467" transform="rotate(-100 228.862 202.747)" fill="#E6F3FF"/>
<ellipse cx="228.862" cy="182.852" rx="4.97325" ry="4.98467" transform="rotate(-100 228.862 182.852)" fill="#E6F3FF"/>
<ellipse cx="257.105" cy="202.748" rx="4.97325" ry="4.98467" transform="rotate(-100 257.105 202.748)" fill="#E6F3FF"/>
<path d="M296.769 165.22C270.656 165.22 235.946 165.118 214.535 165.055C204.986 165.027 198.083 165.007 195.767 165.007C179.342 165.007 165.372 150.971 162.728 131.619C160.652 116.519 166.315 96.3159 187.46 85.6826C182.551 62.0766 194.445 42.086 210.303 33.792C220.309 28.4753 231.259 27.8373 241.454 31.6653C250.327 35.068 258.256 41.8733 264.297 51.4433C273.736 45.4886 284.875 45.0633 294.126 50.8053C302.055 55.9093 309.418 66.5426 308.662 82.7052C328.863 89.7232 336.981 109.501 336.037 126.515C334.715 145.229 322.066 165.22 296.769 165.22Z" fill="#2F80ED"/>
<path d="M296.769 165.22C270.656 165.22 235.946 165.118 214.535 165.055C204.986 165.027 198.083 165.007 195.767 165.007C179.342 165.007 165.372 150.971 162.728 131.619C160.652 116.519 166.315 96.3159 187.46 85.6826C182.551 62.0766 194.445 42.086 210.303 33.792C220.309 28.4753 231.259 27.8373 241.454 31.6653C250.327 35.068 258.256 41.8733 264.297 51.4433C273.736 45.4886 284.875 45.0633 294.126 50.8053C302.055 55.9093 309.418 66.5426 308.662 82.7052C328.863 89.7232 336.981 109.501 336.037 126.515C334.715 145.229 322.066 165.22 296.769 165.22Z" stroke="#2F80ED"/>
<g filter="url(#filter0_d)">
<circle cx="249.96" cy="140.989" r="39.8813" fill="#6FCF97"/>
</g>
<path d="M269.571 144.544C269.679 143.75 269.761 142.956 269.761 142.112C269.761 141.269 269.679 140.475 269.571 139.681L275.299 135.588C275.815 135.215 275.951 134.546 275.625 134L270.195 125.416C269.951 125.019 269.489 124.796 269.001 124.796C268.838 124.796 268.675 124.821 268.539 124.87L261.779 127.351C260.367 126.359 258.847 125.54 257.191 124.92L256.159 118.345C256.078 117.75 255.507 117.303 254.829 117.303H243.969C243.29 117.303 242.72 117.75 242.639 118.345L241.607 124.92C239.951 125.54 238.43 126.383 237.019 127.351L230.259 124.87C230.096 124.821 229.933 124.796 229.77 124.796C229.308 124.796 228.847 125.019 228.602 125.416L223.173 134C222.82 134.546 222.983 135.215 223.498 135.588L229.227 139.681C229.118 140.475 229.037 141.294 229.037 142.112C229.037 142.931 229.118 143.75 229.227 144.544L223.498 148.637C222.983 149.009 222.847 149.679 223.173 150.225L228.602 158.809C228.847 159.206 229.308 159.429 229.797 159.429C229.96 159.429 230.123 159.404 230.259 159.354L237.019 156.874C238.43 157.866 239.951 158.685 241.607 159.305L242.639 165.879C242.72 166.475 243.29 166.921 243.969 166.921H254.829C255.507 166.921 256.078 166.475 256.159 165.879L257.191 159.305C258.847 158.685 260.367 157.841 261.779 156.874L268.539 159.354C268.702 159.404 268.865 159.429 269.028 159.429C269.489 159.429 269.951 159.206 270.195 158.809L275.625 150.225C275.951 149.679 275.815 149.009 275.299 148.637L269.571 144.544ZM264.195 140.301C264.304 141.07 264.331 141.591 264.331 142.112C264.331 142.633 264.277 143.179 264.195 143.923L263.815 146.727L266.231 148.463L269.163 150.547L267.263 153.549L263.815 152.284L260.992 151.242L258.548 152.929C257.381 153.723 256.268 154.318 255.154 154.74L252.277 155.807L251.842 158.61L251.299 161.959H247.498L246.983 158.61L246.548 155.807L243.67 154.74C242.503 154.293 241.417 153.723 240.331 152.979L237.86 151.242L234.983 152.309L231.535 153.574L229.634 150.572L232.566 148.488L234.983 146.752L234.602 143.948C234.521 143.179 234.467 142.608 234.467 142.112C234.467 141.616 234.521 141.045 234.602 140.301L234.983 137.498L232.566 135.761L229.634 133.677L231.535 130.675L234.983 131.941L237.806 132.983L240.249 131.296C241.417 130.502 242.53 129.906 243.643 129.485L246.521 128.418L246.955 125.614L247.498 122.265H251.272L251.788 125.614L252.222 128.418L255.1 129.485C256.268 129.931 257.354 130.502 258.439 131.246L260.91 132.983L263.788 131.916L267.236 130.651L269.136 133.652L266.231 135.761L263.815 137.498L264.195 140.301ZM249.399 132.189C243.399 132.189 238.539 136.63 238.539 142.112C238.539 147.595 243.399 152.036 249.399 152.036C255.399 152.036 260.258 147.595 260.258 142.112C260.258 136.63 255.399 132.189 249.399 132.189ZM249.399 147.074C246.412 147.074 243.969 144.841 243.969 142.112C243.969 139.383 246.412 137.151 249.399 137.151C252.385 137.151 254.829 139.383 254.829 142.112C254.829 144.841 252.385 147.074 249.399 147.074Z" fill="white"/>
<path fill-rule="evenodd" clip-rule="evenodd" d="M156.941 119.365C156.941 119.987 156.494 120.491 155.941 120.491L75.9193 120.491C75.3669 120.491 74.919 119.987 74.919 119.365C74.919 118.743 75.3669 118.239 75.9193 118.239L155.941 118.239C156.494 118.239 156.941 118.743 156.941 119.365Z" fill="#2F80ED"/>
<path fill-rule="evenodd" clip-rule="evenodd" d="M156.941 85.618C156.941 86.2398 156.488 86.7439 155.929 86.7439L119.144 86.7439C117.466 86.7439 116.106 85.2317 116.106 83.3662L116.106 73.2333C116.106 72.6115 115.652 72.1074 115.093 72.1074L75.9317 72.1074C75.3724 72.1074 74.919 71.6033 74.919 70.9815C74.919 70.3597 75.3724 69.8556 75.9317 69.8556L115.093 69.8556C116.771 69.8556 118.131 71.3679 118.131 73.2333L118.131 83.3662C118.131 83.9881 118.584 84.4921 119.144 84.4921L155.929 84.4921C156.488 84.4921 156.941 84.9962 156.941 85.618Z" fill="#2F80ED"/>
<path d="M153.571 82.8027L156.942 85.6177L153.571 88.4327" stroke="#2F80ED" stroke-width="1.12342" stroke-linecap="round"/>
<path d="M153.571 116.55L156.942 119.365L153.571 122.18" stroke="#2F80ED" stroke-width="1.12342" stroke-linecap="round"/>
<path d="M152.447 150.297L155.818 153.112L152.447 155.927" stroke="#2F80ED" stroke-width="1.12342" stroke-linecap="round"/>
<path fill-rule="evenodd" clip-rule="evenodd" d="M72.5537 121.618C73.7948 121.618 74.8009 120.61 74.8009 119.366C74.8009 118.122 73.7948 117.114 72.5537 117.114C71.3126 117.114 70.3065 118.122 70.3065 119.366C70.3065 120.61 71.3126 121.618 72.5537 121.618ZM72.5537 123.87C75.0359 123.87 77.0481 121.853 77.0481 119.366C77.0481 116.878 75.0359 114.862 72.5537 114.862C70.0715 114.862 68.0593 116.878 68.0593 119.366C68.0593 121.853 70.0715 123.87 72.5537 123.87Z" fill="#2F80ED"/>
<path fill-rule="evenodd" clip-rule="evenodd" d="M72.5537 73.2347C73.7948 73.2347 74.8009 72.2265 74.8009 70.9827C74.8009 69.739 73.7948 68.7308 72.5537 68.7308C71.3126 68.7308 70.3065 69.739 70.3065 70.9827C70.3065 72.2265 71.3126 73.2347 72.5537 73.2347ZM72.5537 75.4867C75.0359 75.4867 77.0481 73.4702 77.0481 70.9827C77.0481 68.4953 75.0359 66.4788 72.5537 66.4788C70.0715 66.4788 68.0593 68.4953 68.0593 70.9827C68.0593 73.4702 70.0715 75.4867 72.5537 75.4867Z" fill="#2F80ED"/>
<path fill-rule="evenodd" clip-rule="evenodd" d="M155.818 153.111C155.818 152.489 155.371 151.985 154.819 151.985L118.538 151.985C116.883 151.985 115.542 153.497 115.542 155.363L115.542 165.496C115.542 166.118 115.094 166.622 114.543 166.622L75.9178 166.622C75.3663 166.622 74.9191 167.126 74.9191 167.747C74.9191 168.369 75.3663 168.873 75.9178 168.873L114.543 168.873C116.198 168.873 117.539 167.361 117.539 165.496L117.539 155.363C117.539 154.741 117.986 154.237 118.538 154.237L154.819 154.237C155.371 154.237 155.818 153.733 155.818 153.111Z" fill="#2F80ED"/>
<path fill-rule="evenodd" clip-rule="evenodd" d="M72.5537 165.495C73.7948 165.495 74.8009 166.503 74.8009 167.747C74.8009 168.991 73.7948 169.999 72.5537 169.999C71.3126 169.999 70.3065 168.991 70.3065 167.747C70.3065 166.503 71.3126 165.495 72.5537 165.495ZM72.5537 163.243C75.0359 163.243 77.0481 165.26 77.0481 167.747C77.0481 170.235 75.0359 172.251 72.5537 172.251C70.0715 172.251 68.0593 170.235 68.0593 167.747C68.0593 165.26 70.0715 163.243 72.5537 163.243Z" fill="#2F80ED"/>
<path d="M52.4723 160.732V155.871H25.8943V160.161H31.6995C31.7904 159.308 32.427 158.651 33.2076 158.651C34.0564 158.651 34.7385 159.419 34.7385 160.374C34.7385 161.329 34.0564 162.097 33.2076 162.097C32.427 162.097 31.7904 161.44 31.6995 160.587H25.8943V163.35H30.4263V163.777H25.8943V169.67H36.9742C36.9893 169.67 38.073 169.687 38.7854 168.902C39.2098 168.433 39.4296 167.76 39.4296 166.907V164.365C38.6718 164.263 38.0882 163.538 38.0882 162.668C38.0882 161.713 38.7779 160.945 39.6191 160.945C40.4679 160.945 41.1499 161.713 41.1499 162.668C41.1499 163.546 40.5664 164.263 39.8085 164.365V166.907C39.8085 167.879 39.5509 168.655 39.0507 169.209C38.2701 170.062 37.1788 170.096 36.9969 170.096H36.9742H25.8943V173.823H39.0658C39.1644 172.971 39.801 172.314 40.5816 172.314C41.4304 172.314 42.1124 173.081 42.1124 174.037C42.1124 174.992 41.4228 175.759 40.5816 175.759C39.801 175.759 39.1644 175.103 39.0658 174.25H25.8943V176.749H35.0037C35.034 176.749 37.0651 176.86 37.0651 179.572V185.764H42.9764V181.184H43.3553V185.764H45.4167V179.99C44.6588 179.887 44.0753 179.171 44.0753 178.292C44.0753 177.337 44.7573 176.57 45.6061 176.57C46.4549 176.57 47.137 177.337 47.137 178.292C47.137 179.171 46.5535 179.887 45.7956 179.99V185.764H47.6903V182.344H48.0692V185.764H52.4648V165.61H46.6596C46.5686 166.463 45.932 167.12 45.1439 167.12C44.2951 167.12 43.613 166.352 43.613 165.397C43.613 164.442 44.2951 163.674 45.1439 163.674C45.9244 163.674 46.561 164.331 46.6596 165.184H52.4648V161.158H48.2132V160.732H52.4723Z" fill="#E6F3FF"/>
<path d="M30.4263 181.755C29.6457 181.755 29.0091 181.099 28.9106 180.246H25.8943V185.79H36.6862V179.598C36.6862 177.286 35.0643 177.201 34.9961 177.201H25.8943V179.828H28.9106C29.0015 178.975 29.6381 178.318 30.4263 178.318C31.2751 178.318 31.9571 179.086 31.9571 180.041C31.9571 180.979 31.2751 181.755 30.4263 181.755Z" fill="#E6F3FF"/>
<path d="M60.3994 159.291V158.012H55.8902V154.839C55.8902 153.287 54.7761 152.033 53.3968 152.033H50.5776V146.958H49.4408V152.033H46.9702V146.958H45.8334V152.033H43.3628V146.958H42.226V152.033H39.7554V146.958H38.6186V152.033H36.148V146.958H35.0112V152.033H32.5406V146.958H31.4038V152.033H28.9332V146.958H27.7964V152.033H24.9772C23.5979 152.033 22.4839 153.287 22.4839 154.839V158.012H17.9746V159.291H22.4839V162.071H17.9746V163.351H22.4839V166.131H17.9746V167.41H22.4839V170.191H17.9746V171.47H22.4839V174.25H17.9746V175.529H22.4839V178.31H17.9746V179.589H22.4839V182.369H17.9746V183.649H22.4839V186.821C22.4839 188.374 23.5979 189.627 24.9772 189.627H27.7964V194.702H28.9332V189.627H31.4038V194.702H32.5406V189.627H35.0112V194.702H36.148V189.627H38.6186V194.702H39.7554V189.627H42.226V194.702H43.3628V189.627H45.8334V194.702H46.9702V189.627H49.4408V194.702H50.5776V189.627H53.3968C54.7761 189.627 55.8902 188.374 55.8902 186.821V183.649H60.3994V182.369H55.8902V179.589H60.3994V178.31H55.8902V175.529H60.3994V174.25H55.8902V171.47H60.3994V170.191H55.8902V167.41H60.3994V166.131H55.8902V163.351H60.3994V162.071H55.8902V159.291H60.3994ZM53.2377 186.642H25.1364V155.018H53.2301V186.642H53.2377Z" fill="#2F80ED"/>
<path d="M45.159 163.675C44.3102 163.675 43.6282 164.442 43.6282 165.398C43.6282 166.353 44.3102 167.12 45.159 167.12C45.9396 167.12 46.5762 166.464 46.6748 165.611H52.4799V165.184H46.6748C46.5762 164.331 45.9396 163.675 45.159 163.675Z" fill="#2F80ED"/>
<path d="M28.9181 179.819H25.9019V180.245H28.9181C29.0091 181.098 29.6457 181.755 30.4338 181.755C31.2826 181.755 31.9647 180.987 31.9647 180.032C31.9647 179.077 31.2826 178.309 30.4338 178.309C29.6457 178.309 29.0091 178.966 28.9181 179.819Z" fill="#2F80ED"/>
<path d="M38.7854 168.911C38.073 169.695 36.9893 169.687 36.9741 169.678H25.8943V170.105H36.9666H36.9893C37.1712 170.105 38.2625 170.071 39.0431 169.218C39.5509 168.664 39.8009 167.887 39.8009 166.915V164.374C40.5588 164.271 41.1424 163.546 41.1424 162.676C41.1424 161.721 40.4603 160.954 39.6115 160.954C38.7627 160.954 38.0806 161.721 38.0806 162.676C38.0806 163.555 38.6642 164.271 39.422 164.374V166.915C39.4296 167.768 39.2098 168.433 38.7854 168.911Z" fill="#2F80ED"/>
<path d="M25.8943 173.832V174.259H39.0659C39.0583 174.191 39.0431 174.122 39.0431 174.045C39.0431 173.969 39.0583 173.9 39.0659 173.832H25.8943Z" fill="white"/>
<path d="M37.0727 185.789V179.597C37.0727 176.876 35.0416 176.774 35.0113 176.774H25.8943V177.2H35.0037C35.0719 177.2 36.6938 177.286 36.6938 179.597V185.789H37.0727Z" fill="white"/>
<path d="M45.4241 185.789H45.803V180.015C45.7423 180.024 45.6741 180.041 45.6135 180.041C45.5529 180.041 45.4847 180.024 45.4241 180.015V185.789Z" fill="white"/>
<path d="M43.3628 181.209H42.9839V185.789H43.3628V181.209Z" fill="white"/>
<path d="M48.084 182.369H47.7051V185.79H48.084V182.369Z" fill="white"/>
<path d="M52.4723 160.732H48.2207V161.159H52.4723V160.732Z" fill="white"/>
<path d="M25.8943 160.161V160.588H31.6995C31.6919 160.52 31.6767 160.443 31.6767 160.375C31.6767 160.298 31.6843 160.229 31.6995 160.161H25.8943Z" fill="white"/>
<path d="M30.4263 163.35H25.8943V163.778H30.4263V163.35Z" fill="white"/>
<path d="M53.2376 186.642V155.017H25.1362V186.633H53.2376V186.642ZM25.8941 180.245V179.819V177.192V176.765V174.266V173.84V170.113V169.687V163.793V163.367V160.604V160.177V155.887H52.4721V160.749V161.175V165.201V165.627V185.806H48.0766H47.6976H45.803H45.4241H43.3627H42.9838H37.0725H36.6935H25.8941V180.245Z" fill="#2F80ED"/>
<path d="M31.7073 160.161C31.6997 160.229 31.6846 160.297 31.6846 160.374C31.6846 160.451 31.6921 160.519 31.7073 160.587C31.7982 161.44 32.4348 162.097 33.2154 162.097C34.0642 162.097 34.7463 161.329 34.7463 160.374C34.7463 159.419 34.0642 158.651 33.2154 158.651C32.4348 158.651 31.7982 159.316 31.7073 160.161Z" fill="#2F80ED"/>
<path d="M39.0738 173.832C39.0662 173.901 39.051 173.977 39.051 174.046C39.051 174.122 39.0662 174.191 39.0738 174.259C39.1647 175.112 39.8089 175.769 40.5895 175.769C41.4383 175.769 42.1203 175.001 42.1203 174.046C42.1203 173.09 41.4307 172.323 40.5895 172.323C39.8013 172.323 39.1647 172.988 39.0738 173.832Z" fill="#2F80ED"/>
<path d="M44.0828 178.309C44.0828 179.188 44.6663 179.904 45.4242 180.007C45.4848 180.015 45.553 180.032 45.6136 180.032C45.6818 180.032 45.7425 180.015 45.8031 180.007C46.561 179.904 47.1445 179.188 47.1445 178.309C47.1445 177.354 46.4624 176.586 45.6136 176.586C44.7724 176.586 44.0828 177.354 44.0828 178.309Z" fill="#2F80ED"/>
<path d="M52.4723 109.621V104.76H25.8943V109.049H31.6995C31.7904 108.197 32.427 107.54 33.2076 107.54C34.0564 107.54 34.7385 108.307 34.7385 109.263C34.7385 110.218 34.0564 110.985 33.2076 110.985C32.427 110.985 31.7904 110.329 31.6995 109.476H25.8943V112.239H30.4263V112.666H25.8943V118.559H36.9742C36.9893 118.559 38.073 118.576 38.7854 117.791C39.2098 117.322 39.4296 116.648 39.4296 115.796V113.254C38.6718 113.152 38.0882 112.427 38.0882 111.557C38.0882 110.602 38.7779 109.834 39.6191 109.834C40.4679 109.834 41.1499 110.602 41.1499 111.557C41.1499 112.435 40.5664 113.152 39.8085 113.254V115.796C39.8085 116.768 39.5509 117.544 39.0507 118.098C38.2701 118.951 37.1788 118.985 36.9969 118.985H36.9742H25.8943V122.712H39.0658C39.1644 121.859 39.801 121.203 40.5816 121.203C41.4304 121.203 42.1124 121.97 42.1124 122.926C42.1124 123.881 41.4228 124.648 40.5816 124.648C39.801 124.648 39.1644 123.992 39.0658 123.139H25.8943V125.638H35.0037C35.034 125.638 37.0651 125.749 37.0651 128.461V134.652H42.9764V130.073H43.3553V134.652H45.4167V128.879C44.6588 128.776 44.0753 128.06 44.0753 127.181C44.0753 126.226 44.7573 125.459 45.6061 125.459C46.4549 125.459 47.137 126.226 47.137 127.181C47.137 128.06 46.5535 128.776 45.7956 128.879V134.652H47.6903V131.232H48.0692V134.652H52.4648V114.499H46.6596C46.5686 115.352 45.932 116.009 45.1439 116.009C44.2951 116.009 43.613 115.241 43.613 114.286C43.613 113.331 44.2951 112.563 45.1439 112.563C45.9244 112.563 46.561 113.22 46.6596 114.073H52.4648V110.047H48.2132V109.621H52.4723Z" fill="#E6F3FF"/>
<path d="M30.4263 130.645C29.6457 130.645 29.0091 129.988 28.9106 129.135H25.8943V134.679H36.6862V128.487C36.6862 126.176 35.0643 126.09 34.9961 126.09H25.8943V128.717H28.9106C29.0015 127.864 29.6381 127.208 30.4263 127.208C31.2751 127.208 31.9571 127.975 31.9571 128.93C31.9571 129.869 31.2751 130.645 30.4263 130.645Z" fill="#E6F3FF"/>
<path d="M60.3994 108.18V106.9H55.8902V103.728C55.8902 102.175 54.7761 100.922 53.3968 100.922H50.5776V95.8472H49.4408V100.922H46.9702V95.8472H45.8334V100.922H43.3628V95.8472H42.226V100.922H39.7554V95.8472H38.6186V100.922H36.148V95.8472H35.0112V100.922H32.5406V95.8472H31.4038V100.922H28.9332V95.8472H27.7964V100.922H24.9772C23.5979 100.922 22.4839 102.175 22.4839 103.728V106.9H17.9746V108.18H22.4839V110.96H17.9746V112.239H22.4839V115.02H17.9746V116.299H22.4839V119.079H17.9746V120.358H22.4839V123.139H17.9746V124.418H22.4839V127.198H17.9746V128.478H22.4839V131.258H17.9746V132.537H22.4839V135.71C22.4839 137.262 23.5979 138.516 24.9772 138.516H27.7964V143.591H28.9332V138.516H31.4038V143.591H32.5406V138.516H35.0112V143.591H36.148V138.516H38.6186V143.591H39.7554V138.516H42.226V143.591H43.3628V138.516H45.8334V143.591H46.9702V138.516H49.4408V143.591H50.5776V138.516H53.3968C54.7761 138.516 55.8902 137.262 55.8902 135.71V132.537H60.3994V131.258H55.8902V128.478H60.3994V127.198H55.8902V124.418H60.3994V123.139H55.8902V120.358H60.3994V119.079H55.8902V116.299H60.3994V115.02H55.8902V112.239H60.3994V110.96H55.8902V108.18H60.3994ZM53.2377 135.531H25.1364V103.907H53.2301V135.531H53.2377Z" fill="#2F80ED"/>
<path d="M45.159 112.564C44.3102 112.564 43.6282 113.331 43.6282 114.287C43.6282 115.242 44.3102 116.01 45.159 116.01C45.9396 116.01 46.5762 115.353 46.6748 114.5H52.4799V114.073H46.6748C46.5762 113.22 45.9396 112.564 45.159 112.564Z" fill="#2F80ED"/>
<path d="M28.9181 128.708H25.9019V129.134H28.9181C29.0091 129.987 29.6457 130.644 30.4338 130.644C31.2826 130.644 31.9647 129.876 31.9647 128.921C31.9647 127.966 31.2826 127.198 30.4338 127.198C29.6457 127.198 29.0091 127.855 28.9181 128.708Z" fill="#2F80ED"/>
<path d="M38.7854 117.8C38.073 118.584 36.9893 118.576 36.9741 118.567H25.8943V118.994H36.9666H36.9893C37.1712 118.994 38.2625 118.96 39.0431 118.107C39.5509 117.552 39.8009 116.776 39.8009 115.804V113.263C40.5588 113.16 41.1424 112.435 41.1424 111.565C41.1424 110.61 40.4603 109.843 39.6115 109.843C38.7627 109.843 38.0806 110.61 38.0806 111.565C38.0806 112.444 38.6642 113.16 39.422 113.263V115.804C39.4296 116.657 39.2098 117.322 38.7854 117.8Z" fill="#2F80ED"/>
<path d="M25.8943 122.721V123.148H39.0659C39.0583 123.08 39.0431 123.011 39.0431 122.935C39.0431 122.858 39.0583 122.789 39.0659 122.721H25.8943Z" fill="white"/>
<path d="M37.0727 134.678V128.486C37.0727 125.766 35.0416 125.663 35.0113 125.663H25.8943V126.09H35.0037C35.0719 126.09 36.6938 126.175 36.6938 128.486V134.678H37.0727Z" fill="white"/>
<path d="M45.4241 134.678H45.803V128.904C45.7423 128.913 45.6741 128.93 45.6135 128.93C45.5529 128.93 45.4847 128.913 45.4241 128.904V134.678Z" fill="white"/>
<path d="M43.3628 130.098H42.9839V134.678H43.3628V130.098Z" fill="white"/>
<path d="M48.084 131.258H47.7051V134.679H48.084V131.258Z" fill="white"/>
<path d="M52.4723 109.621H48.2207V110.048H52.4723V109.621Z" fill="white"/>
<path d="M25.8943 109.05V109.477H31.6995C31.6919 109.409 31.6767 109.332 31.6767 109.263C31.6767 109.187 31.6843 109.118 31.6995 109.05H25.8943Z" fill="white"/>
<path d="M30.4263 112.24H25.8943V112.667H30.4263V112.24Z" fill="white"/>
<path d="M53.2376 135.53V103.906H25.1362V135.522H53.2376V135.53ZM25.8941 129.134V128.708V126.081V125.654V123.155V122.729V119.002V118.576V112.682V112.256V109.493V109.066V104.776H52.4721V109.637V110.064V114.089V114.516V134.695H48.0766H47.6976H45.803H45.4241H43.3627H42.9838H37.0725H36.6935H25.8941V129.134Z" fill="#2F80ED"/>
<path d="M31.7073 109.049C31.6997 109.118 31.6846 109.186 31.6846 109.263C31.6846 109.339 31.6921 109.408 31.7073 109.476C31.7982 110.329 32.4348 110.986 33.2154 110.986C34.0642 110.986 34.7463 110.218 34.7463 109.263C34.7463 108.307 34.0642 107.54 33.2154 107.54C32.4348 107.54 31.7982 108.205 31.7073 109.049Z" fill="#2F80ED"/>
<path d="M39.0738 122.721C39.0662 122.79 39.051 122.866 39.051 122.935C39.051 123.011 39.0662 123.08 39.0738 123.148C39.1647 124.001 39.8089 124.658 40.5895 124.658C41.4383 124.658 42.1203 123.89 42.1203 122.935C42.1203 121.979 41.4307 121.212 40.5895 121.212C39.8013 121.212 39.1647 121.877 39.0738 122.721Z" fill="#2F80ED"/>
<path d="M44.0828 127.199C44.0828 128.077 44.6663 128.794 45.4242 128.896C45.4848 128.904 45.553 128.921 45.6136 128.921C45.6818 128.921 45.7425 128.904 45.8031 128.896C46.561 128.794 47.1445 128.077 47.1445 127.199C47.1445 126.243 46.4624 125.476 45.6136 125.476C44.7724 125.476 44.0828 126.243 44.0828 127.199Z" fill="#2F80ED"/>
<path d="M52.4723 58.6335V53.7722H25.8943V58.0621H31.6995C31.7904 57.2093 32.427 56.5526 33.2076 56.5526C34.0564 56.5526 34.7385 57.3201 34.7385 58.2753C34.7385 59.2306 34.0564 59.9981 33.2076 59.9981C32.427 59.9981 31.7904 59.3414 31.6995 58.4886H25.8943V61.2518H30.4263V61.6783H25.8943V67.5716H36.9742C36.9893 67.5716 38.073 67.5886 38.7854 66.804C39.2098 66.3349 39.4296 65.6612 39.4296 64.8083V62.2668C38.6718 62.1644 38.0882 61.4395 38.0882 60.5696C38.0882 59.6143 38.7779 58.8468 39.6191 58.8468C40.4679 58.8468 41.1499 59.6143 41.1499 60.5696C41.1499 61.448 40.5664 62.1644 39.8085 62.2668V64.8083C39.8085 65.7806 39.5509 66.5567 39.0507 67.111C38.2701 67.9639 37.1788 67.998 36.9969 67.998H36.9742H25.8943V71.725H39.0658C39.1644 70.8722 39.801 70.2155 40.5816 70.2155C41.4304 70.2155 42.1124 70.983 42.1124 71.9382C42.1124 72.8934 41.4228 73.661 40.5816 73.661C39.801 73.661 39.1644 73.0043 39.0658 72.1515H25.8943V74.6504H35.0037C35.034 74.6504 37.0651 74.7612 37.0651 77.4733V83.6651H42.9764V79.0853H43.3553V83.6651H45.4167V77.8912C44.6588 77.7889 44.0753 77.0725 44.0753 76.194C44.0753 75.2388 44.7573 74.4713 45.6061 74.4713C46.4549 74.4713 47.137 75.2388 47.137 76.194C47.137 77.0725 46.5535 77.7889 45.7956 77.8912V83.6651H47.6903V80.2451H48.0692V83.6651H52.4648V63.5119H46.6596C46.5686 64.3648 45.932 65.0215 45.1439 65.0215C44.2951 65.0215 43.613 64.2539 43.613 63.2987C43.613 62.3435 44.2951 61.5759 45.1439 61.5759C45.9244 61.5759 46.561 62.2326 46.6596 63.0855H52.4648V59.06H48.2132V58.6335H52.4723Z" fill="#E6F3FF"/>
<path d="M30.4263 79.6571C29.6457 79.6571 29.0091 79.0004 28.9106 78.1475H25.8943V83.6912H36.6862V77.4993C36.6862 75.1881 35.0643 75.1028 34.9961 75.1028H25.8943V77.7296H28.9106C29.0015 76.8767 29.6381 76.22 30.4263 76.22C31.2751 76.22 31.9571 76.9876 31.9571 77.9428C31.9571 78.881 31.2751 79.6571 30.4263 79.6571Z" fill="#E6F3FF"/>
<path d="M60.3994 57.192V55.9127H55.8902V52.7401C55.8902 51.1879 54.7761 49.9342 53.3968 49.9342H50.5776V44.8596H49.4408V49.9342H46.9702V44.8596H45.8334V49.9342H43.3628V44.8596H42.226V49.9342H39.7554V44.8596H38.6186V49.9342H36.148V44.8596H35.0112V49.9342H32.5406V44.8596H31.4038V49.9342H28.9332V44.8596H27.7964V49.9342H24.9772C23.5979 49.9342 22.4839 51.1879 22.4839 52.7401V55.9127H17.9746V57.192H22.4839V59.9724H17.9746V61.2517H22.4839V64.032H17.9746V65.3113H22.4839V68.0916H17.9746V69.3709H22.4839V72.1513H17.9746V73.4306H22.4839V76.2109H17.9746V77.4902H22.4839V80.2705H17.9746V81.5498H22.4839V84.7225C22.4839 86.2747 23.5979 87.5284 24.9772 87.5284H27.7964V92.603H28.9332V87.5284H31.4038V92.603H32.5406V87.5284H35.0112V92.603H36.148V87.5284H38.6186V92.603H39.7554V87.5284H42.226V92.603H43.3628V87.5284H45.8334V92.603H46.9702V87.5284H49.4408V92.603H50.5776V87.5284H53.3968C54.7761 87.5284 55.8902 86.2747 55.8902 84.7225V81.5498H60.3994V80.2705H55.8902V77.4902H60.3994V76.2109H55.8902V73.4306H60.3994V72.1513H55.8902V69.3709H60.3994V68.0916H55.8902V65.3113H60.3994V64.032H55.8902V61.2517H60.3994V59.9724H55.8902V57.192H60.3994ZM53.2377 84.5434H25.1364V52.9192H53.2301V84.5434H53.2377Z" fill="#2F80ED"/>
<path d="M45.159 61.5762C44.3102 61.5762 43.6282 62.3438 43.6282 63.2991C43.6282 64.2544 44.3102 65.022 45.159 65.022C45.9396 65.022 46.5762 64.3653 46.6748 63.5123H52.4799V63.0859H46.6748C46.5762 62.2329 45.9396 61.5762 45.159 61.5762Z" fill="#2F80ED"/>
<path d="M28.9181 77.7206H25.9019V78.1471H28.9181C29.0091 79 29.6457 79.6568 30.4338 79.6568C31.2826 79.6568 31.9647 78.8892 31.9647 77.9339C31.9647 76.9786 31.2826 76.2109 30.4338 76.2109C29.6457 76.2109 29.0091 76.8677 28.9181 77.7206Z" fill="#2F80ED"/>
<path d="M38.7854 66.8124C38.073 67.5971 36.9893 67.5886 36.9741 67.58H25.8943V68.0065H36.9666H36.9893C37.1712 68.0065 38.2625 67.9723 39.0431 67.1195C39.5509 66.5651 39.8009 65.789 39.8009 64.8167V62.2752C40.5588 62.1729 41.1424 61.4479 41.1424 60.578C41.1424 59.6228 40.4603 58.8552 39.6115 58.8552C38.7627 58.8552 38.0806 59.6228 38.0806 60.578C38.0806 61.4565 38.6642 62.1729 39.422 62.2752V64.8167C39.4296 65.6696 39.2098 66.3348 38.7854 66.8124Z" fill="#2F80ED"/>
<path d="M25.8943 71.7336V72.1609H39.0659C39.0583 72.0925 39.0431 72.0242 39.0431 71.9473C39.0431 71.8704 39.0583 71.802 39.0659 71.7336H25.8943Z" fill="white"/>
<path d="M37.0727 83.6906V77.4988C37.0727 74.7781 35.0416 74.6758 35.0113 74.6758H25.8943V75.1022H35.0037C35.0719 75.1022 36.6938 75.1875 36.6938 77.4988V83.6906H37.0727Z" fill="white"/>
<path d="M45.4241 83.6909H45.803V77.917C45.7423 77.9255 45.6741 77.9426 45.6135 77.9426C45.5529 77.9426 45.4847 77.9255 45.4241 77.917V83.6909Z" fill="white"/>
<path d="M43.3628 79.1106H42.9839V83.6905H43.3628V79.1106Z" fill="white"/>
<path d="M48.084 80.271H47.7051V83.6913H48.084V80.271Z" fill="white"/>
<path d="M52.4723 58.6335H48.2207V59.0608H52.4723V58.6335Z" fill="white"/>
<path d="M25.8943 58.0625V58.4897H31.6995C31.6919 58.4214 31.6767 58.3445 31.6767 58.2761C31.6767 58.1992 31.6843 58.1309 31.6995 58.0625H25.8943Z" fill="white"/>
<path d="M30.4263 61.2522H25.8943V61.6794H30.4263V61.2522Z" fill="white"/>
<path d="M53.2376 84.5432V52.9189H25.1362V84.5346H53.2376V84.5432ZM25.8941 78.1467V77.7202V75.0934V74.667V72.1681V71.7417V68.0146V67.5882V61.6949V61.2685V58.5052V58.0788V53.7889H52.4721V58.6502V59.0766V63.1021V63.5286V83.7074H48.0766H47.6976H45.803H45.4241H43.3627H42.9838H37.0725H36.6935H25.8941V78.1467Z" fill="#2F80ED"/>
<path d="M31.7073 58.062C31.6997 58.1302 31.6846 58.1984 31.6846 58.2752C31.6846 58.352 31.6921 58.4202 31.7073 58.4884C31.7982 59.3414 32.4348 59.9981 33.2154 59.9981C34.0642 59.9981 34.7463 59.2305 34.7463 58.2752C34.7463 57.3199 34.0642 56.5522 33.2154 56.5522C32.4348 56.5522 31.7982 57.2175 31.7073 58.062Z" fill="#2F80ED"/>
<path d="M39.0738 71.7339C39.0662 71.8021 39.051 71.8789 39.051 71.9471C39.051 72.0239 39.0662 72.0921 39.0738 72.1604C39.1647 73.0133 39.8089 73.6701 40.5895 73.6701C41.4383 73.6701 42.1203 72.9024 42.1203 71.9471C42.1203 70.9918 41.4307 70.2241 40.5895 70.2241C39.8013 70.2241 39.1647 70.8894 39.0738 71.7339Z" fill="#2F80ED"/>
<path d="M44.0828 76.2112C44.0828 77.0898 44.6663 77.8062 45.4242 77.9086C45.4848 77.9171 45.553 77.9342 45.6136 77.9342C45.6818 77.9342 45.7425 77.9171 45.8031 77.9086C46.561 77.8062 47.1445 77.0898 47.1445 76.2112C47.1445 75.2559 46.4624 74.4883 45.6136 74.4883C44.7724 74.4883 44.0828 75.2559 44.0828 76.2112Z" fill="#2F80ED"/>
<defs>
<filter id="filter0_d" x="202.971" y="101.108" width="93.9797" height="93.9797" filterUnits="userSpaceOnUse" color-interpolation-filters="sRGB">
<feFlood flood-opacity="0" result="BackgroundImageFix"/>
<feColorMatrix in="SourceAlpha" type="matrix" values="0 0 0 0 0 0 0 0 0 0 0 0 0 0 0 0 0 0 127 0"/>
<feOffset dy="7.10851"/>
<feGaussianBlur stdDeviation="3.55425"/>
<feColorMatrix type="matrix" values="0 0 0 0 0 0 0 0 0 0 0 0 0 0 0 0 0 0 0.25 0"/>
<feBlend mode="normal" in2="BackgroundImageFix" result="effect1_dropShadow"/>
<feBlend mode="normal" in="SourceGraphic" in2="effect1_dropShadow" result="shape"/>
</filter>
</defs>
</svg>
